<svg width="64" height="64" viewBox="0 0 64 64" xmlns="http://www.w3.org/2000/svg" role="img" aria-label="Вікна Виробництво">
  <rect width="64" height="64" rx="14" fill="#4640FF"/>
  <path d="M17.32 50C16.25 50 15.34 49.62 14.58 48.86C13.82 48.1 13.44 47.18 13.44 46.12V17.88C13.44 16.82 13.82 15.9 14.58 15.14C15.34 14.38 16.25 14 17.32 14H46.68C47.75 14 48.66 14.38 49.42 15.14C50.18 15.9 50.56 16.82 50.56 17.88V46.12C50.56 47.18 50.18 48.1 49.42 48.86C48.66 49.62 47.75 50 46.68 50H17.32ZM39.78 46.12H46.68V17.88H39.78V46.12ZM35.9 46.12V17.88H17.32V46.12H35.9Z" fill="#FFFFFF"/>
</svg>
