<svg viewBox="0 0 40 40" xmlns="http://www.w3.org/2000/svg" xmlns:xlink="http://www.w3.org/1999/xlink" width="40.000000" height="40.000000" fill="none">
	<rect id="chat_42dp_E3E3E3_FILL0_wght400_GRAD0_opsz40 1" width="40.000000" height="40.000000" x="0.000000" y="0.000000" fill="rgb(255,255,255)" fill-opacity="0" />
	<path id="Vector" d="M10.0002 23.3614L23.1389 23.3614L23.1389 20.5835L10.0002 20.5835L10.0002 23.3614ZM10.0002 18.0835L30.0002 18.0835L30.0002 15.3056L10.0002 15.3056L10.0002 18.0835ZM10.0002 12.8056L30.0002 12.8056L30.0002 10.0281L10.0002 10.0281L10.0002 12.8056ZM3.3335 36.6668L3.3335 6.11141C3.3335 5.36141 3.60891 4.71086 4.15975 4.15975C4.71086 3.60891 5.36141 3.3335 6.11141 3.3335L33.8889 3.3335C34.6389 3.3335 35.2895 3.60891 35.8406 4.15975C36.3914 4.71086 36.6668 5.36141 36.6668 6.11141L36.6668 27.2222C36.6668 27.9722 36.3914 28.6228 35.8406 29.1739C35.2895 29.7248 34.6389 30.0002 33.8889 30.0002L10.0002 30.0002L3.3335 36.6668ZM8.80558 27.2222L33.8889 27.2222L33.8889 6.11141L6.11141 6.11141L6.11141 30.0697L8.80558 27.2222Z" fill="rgb(255,255,255)" fill-rule="nonzero" />
</svg>
