<svg viewBox="0 0 60 60" xmlns="http://www.w3.org/2000/svg" xmlns:xlink="http://www.w3.org/1999/xlink" width="60.000000" height="60.000000" fill="none">
	<rect id="factory_42dp_E3E3E3_FILL0_wght400_GRAD0_opsz40 1" width="60.000000" height="60.000000" x="0.000000" y="0.000000" fill="rgb(255,255,255)" fill-opacity="0" />
	<path id="Vector" d="M5 55L5 24.9375L22.5 17.5L22.5 22.5L35 17.4581L35 25L55 25L55 55L5 55ZM9.16688 50.8331L50.8331 50.8331L50.8331 29.175L30.8331 29.175L30.8331 23.625L18.3331 28.625L18.3331 23.7081L9.16688 27.7706L9.16688 50.8331ZM27.9169 45L32.0831 45L32.0831 35L27.9169 35L27.9169 45ZM17.9169 45L22.0831 45L22.0831 35L17.9169 35L17.9169 45ZM37.9169 45L42.0831 45L42.0831 35L37.9169 35L37.9169 45ZM55 25L43.3331 25L45.8331 5L52.5 5L55 25Z" fill="rgb(255,255,255)" fill-rule="nonzero" />
</svg>
