<svg viewBox="0 0 60 60" xmlns="http://www.w3.org/2000/svg" xmlns:xlink="http://www.w3.org/1999/xlink" width="60.000000" height="60.000000" fill="none">
	<rect id="handyman_42dp_E3E3E3_FILL0_wght400_GRAD0_opsz40 1" width="60.000000" height="60.000000" x="0.000000" y="0.000000" fill="rgb(255,255,255)" fill-opacity="0" />
	<path id="Vector" d="M46.7706 54.8438C46.5348 54.7533 46.3056 54.5971 46.0831 54.375L31.75 40.0419C31.5279 39.8194 31.3717 39.5902 31.2812 39.3544C31.1908 39.1181 31.1456 38.861 31.1456 38.5831C31.1456 38.3056 31.1908 38.0488 31.2812 37.8125C31.3717 37.5762 31.5279 37.3471 31.75 37.125L37.0625 31.8125C37.2846 31.5904 37.5137 31.4342 37.75 31.3438C37.9863 31.2533 38.2431 31.2081 38.5206 31.2081C38.7985 31.2081 39.0556 31.2533 39.2919 31.3438C39.5277 31.4342 39.7569 31.5904 39.9794 31.8125L54.3125 46.1456C54.5346 46.3681 54.6908 46.5973 54.7812 46.8331C54.8717 47.0694 54.9169 47.3265 54.9169 47.6044C54.9169 47.8819 54.8717 48.1387 54.7812 48.375C54.6908 48.6113 54.5346 48.8404 54.3125 49.0625L49 54.375C48.7779 54.5971 48.5488 54.7533 48.3125 54.8438C48.0762 54.9342 47.8194 54.9794 47.5419 54.9794C47.264 54.9794 47.0069 54.9342 46.7706 54.8438ZM47.5419 50L49.9375 47.6044L38.5419 36.2081L36.1456 38.6044L47.5419 50ZM11.5938 54.8544C11.3367 54.7569 11.0971 54.5971 10.875 54.375L5.625 49.125C5.40292 48.9029 5.24312 48.6633 5.14563 48.4062C5.04854 48.1492 5 47.8819 5 47.6044C5 47.3265 5.04854 47.0694 5.14563 46.8331C5.24312 46.5973 5.40292 46.3681 5.625 46.1456L19.4169 32.3544L24.7294 32.3544L27.0206 30.0625L16.2919 19.3331L12.7294 19.3331L5 11.6044L11.4794 5.125L19.2081 12.8544L19.2081 16.4169L29.9375 27.1456L37.7706 19.3125L34.0831 15.625L37.5831 12.125L30.5206 12.125L29.1875 10.7919L37.4794 2.5L38.8125 3.83313L38.8125 10.8956L42.3125 7.39563L52.3125 17.3956C52.9654 18.0485 53.4723 18.7952 53.8331 19.6356C54.1944 20.4756 54.375 21.3679 54.375 22.3125C54.375 23.2013 54.2223 24.0554 53.9169 24.875C53.611 25.6946 53.1735 26.4306 52.6044 27.0831L47.2919 21.7706L43.7919 25.2706L40.75 22.2294L27.6456 35.3331L27.6456 40.5831L13.8544 54.375C13.6319 54.5971 13.4027 54.7569 13.1669 54.8544C12.9306 54.9515 12.6735 55 12.3956 55C12.1181 55 11.8508 54.9515 11.5938 54.8544ZM12.3956 50L24.2706 38.125L24.2706 35.7294L21.875 35.7294L10 47.6044L12.3956 50ZM12.3956 50L10 47.6044L11.2294 48.7706L12.3956 50Z" fill="rgb(255,255,255)" fill-rule="nonzero" />
</svg>
