<svg viewBox="0 0 60 60" xmlns="http://www.w3.org/2000/svg" xmlns:xlink="http://www.w3.org/1999/xlink" width="60.000000" height="60.000000" fill="none">
	<rect id="editor_choice_42dp_E3E3E3_FILL0_wght400_GRAD0_opsz40 1" width="60.000000" height="60.000000" x="0.000000" y="0.000000" fill="rgb(255,255,255)" fill-opacity="0" />
	<path id="Vector" d="M15.4169 57.5L15.4169 36.3544L7.375 23.3331L18.6875 5L41.3125 5L52.625 23.3331L44.5831 36.3544L44.5831 57.5L30 52.625L15.4169 57.5ZM19.5831 51.6875L30 48.2919L40.4169 51.6875L40.4169 41.6669L19.5831 41.6669L19.5831 51.6875ZM21 9.16687L12.25 23.3331L21 37.5L39 37.5L47.75 23.3331L39 9.16687L21 9.16687ZM27.375 32.9375L19.0831 24.7081L22.0625 21.7294L27.375 27.0419L37.9375 16.4169L40.9169 19.3331L27.375 32.9375Z" fill="rgb(255,255,255)" fill-rule="nonzero" />
</svg>
