<svg viewBox="0 0 60 60" xmlns="http://www.w3.org/2000/svg" xmlns:xlink="http://www.w3.org/1999/xlink" width="60.000000" height="60.000000" fill="none">
	<rect id="settings_42dp_E3E3E3_FILL0_wght400_GRAD0_opsz40 1" width="60.000000" height="60.000000" x="0.000000" y="0.000000" fill="rgb(255,255,255)" fill-opacity="0" />
	<path id="Vector" d="M23.8749 55L22.708 47.0831C21.9997 46.8194 21.2741 46.4723 20.5311 46.0419C19.7882 45.611 19.118 45.1596 18.5205 44.6875L11.1249 47.9794L4.95801 37.1875L11.6043 32.2706C11.5347 31.9235 11.493 31.5452 11.4793 31.1356C11.4651 30.7256 11.458 30.3471 11.458 30C11.458 29.6529 11.4651 29.2744 11.4793 28.8644C11.493 28.4548 11.5347 28.0765 11.6043 27.7294L4.95801 22.8125L11.1249 12.0206L18.5205 15.3125C19.118 14.8404 19.7918 14.389 20.5418 13.9581C21.2918 13.5277 22.0138 13.1944 22.708 12.9581L23.8749 5L36.1249 5L37.2918 12.9169C38.0001 13.1806 38.7326 13.5208 39.4893 13.9375C40.2463 14.3542 40.9097 14.8125 41.4793 15.3125L48.8749 12.0206L55.0418 22.8125L48.3955 27.6456C48.4651 28.0206 48.5068 28.4131 48.5205 28.8231C48.5347 29.2327 48.5418 29.625 48.5418 30C48.5418 30.375 48.5347 30.7604 48.5205 31.1563C48.5068 31.5521 48.4582 31.9375 48.3749 32.3125L55.0205 37.1875L48.8543 47.9794L41.4793 44.6875C40.8818 45.1596 40.2151 45.6179 39.4793 46.0625C38.743 46.5071 38.0138 46.8473 37.2918 47.0831L36.1249 55L23.8749 55ZM27.333 50.8331L32.6455 50.8331L33.5205 43.9581C34.868 43.6248 36.1355 43.1144 37.323 42.4269C38.5105 41.7394 39.5903 40.9096 40.5624 39.9375L47.0418 42.7081L49.5205 38.2919L43.8124 34.0625C43.9928 33.3958 44.1318 32.7256 44.2293 32.0519C44.3263 31.3785 44.3749 30.6946 44.3749 30C44.3749 29.3054 44.3332 28.6215 44.2499 27.9481C44.1666 27.2744 44.0207 26.6042 43.8124 25.9375L49.5205 21.7081L47.0418 17.2919L40.5624 20.0831C39.6178 19.0415 38.5588 18.17 37.3855 17.4688C36.2118 16.7675 34.9234 16.2919 33.5205 16.0419L32.6668 9.16687L27.3543 9.16687L26.4793 16.0419C25.1043 16.3473 23.823 16.8438 22.6355 17.5313C21.448 18.2188 20.382 19.0625 19.4374 20.0625L12.958 17.2919L10.4793 21.7081L16.1874 25.9169C16.007 26.5973 15.868 27.2708 15.7705 27.9375C15.6734 28.6042 15.6249 29.2917 15.6249 30C15.6249 30.6946 15.6734 31.3752 15.7705 32.0419C15.868 32.7085 16.007 33.3821 16.1874 34.0625L10.4793 38.2919L12.958 42.7081L19.4374 39.9169C20.4095 40.9027 21.4893 41.7394 22.6768 42.4269C23.8643 43.1144 25.1318 43.6248 26.4793 43.9581L27.333 50.8331ZM30.0418 38.3331C32.3472 38.3331 34.3124 37.5206 35.9374 35.8956C37.5624 34.2706 38.3749 32.3054 38.3749 30C38.3749 27.6946 37.5624 25.7294 35.9374 24.1044C34.3124 22.4794 32.3472 21.6669 30.0418 21.6669C27.7222 21.6669 25.7534 22.4794 24.1355 24.1044C22.5172 25.7294 21.708 27.6946 21.708 30C21.708 32.3054 22.5172 34.2706 24.1355 35.8956C25.7534 37.5206 27.7222 38.3331 30.0418 38.3331Z" fill="rgb(255,255,255)" fill-rule="nonzero" />
</svg>
