<svg viewBox="0 0 40 40" xmlns="http://www.w3.org/2000/svg" xmlns:xlink="http://www.w3.org/1999/xlink" width="40.000000" height="40.000000" fill="none">
	<defs>
		<linearGradient id="paint_linear_0" x1="20" x2="20" y1="2.5" y2="37.5" gradientUnits="userSpaceOnUse">
			<stop stop-color="rgb(55,187,254)" offset="0" stop-opacity="1" />
			<stop stop-color="rgb(0,125,187)" offset="1" stop-opacity="1" />
		</linearGradient>
	</defs>
	<rect id="telegram-svgrepo-com 1" width="40.000000" height="40.000000" x="0.000000" y="0.000000" fill="rgb(255,255,255)" fill-opacity="0" />
	<path id="Vector" d="M20 37.5C29.665 37.5 37.5 29.665 37.5 20C37.5 10.335 29.665 2.5 20 2.5C10.335 2.5 2.5 10.335 2.5 20C2.5 29.665 10.335 37.5 20 37.5Z" fill="url(#paint_linear_0)" fill-rule="evenodd" />
	<path id="Vector" d="M28.7332 12.761C28.889 11.7541 27.9317 10.9594 27.0365 11.3525L9.20602 19.181C8.56403 19.4629 8.611 20.4354 9.27683 20.6474L12.9539 21.8184C13.6557 22.0419 14.4156 21.9262 15.0285 21.5029L23.3187 15.7754C23.5687 15.6026 23.8412 15.9581 23.6276 16.1782L17.6601 22.3307C17.0812 22.9276 17.1961 23.939 17.8925 24.3756L24.5737 28.5654C25.3231 29.0352 26.2871 28.5632 26.4272 27.6576L28.7332 12.761Z" fill="rgb(255,255,255)" fill-rule="nonzero" />
</svg>
