<svg viewBox="0 0 40 40" xmlns="http://www.w3.org/2000/svg" xmlns:xlink="http://www.w3.org/1999/xlink" width="40.000000" height="40.000000" fill="none">
	<rect id="viber-logo-14132 1" width="40.000000" height="40.000000" x="0.000000" y="0.000000" fill="rgb(255,255,255)" fill-opacity="0" />
	<g id="Group">
		<path id="Vector" d="M19.7578 39.5156C8.84579 39.5156 0 30.6698 0 19.7578C0 8.84579 8.84579 0 19.7578 0C30.6698 0 39.5156 8.84579 39.5156 19.7578C39.5156 30.6698 30.6698 39.5156 19.7578 39.5156Z" fill="rgb(115,96,242)" fill-rule="nonzero" />
		<path id="Vector" d="M29.4296 9.15534C28.775 8.55119 26.1296 6.63073 20.237 6.60483C20.237 6.60483 13.2879 6.18596 9.90055 9.29321C8.01478 11.1794 7.35135 13.9389 7.28154 17.3605C7.21173 20.7822 7.12085 27.1942 13.302 28.9329L13.3081 28.9329L13.3037 31.5857C13.3037 31.5857 13.2642 32.6597 13.9715 32.8788C14.8268 33.1444 15.3291 32.3282 16.1458 31.4483C16.5941 30.9653 17.2131 30.2558 17.6794 29.7131C21.9067 30.0688 25.1575 29.2556 25.5268 29.1358C26.3803 28.8591 31.21 28.2401 31.9955 21.8284C32.8064 15.2197 31.6034 11.0394 29.4296 9.15534ZM30.1462 21.3543C29.4832 26.7077 25.5659 27.0441 24.8436 27.2759C24.5363 27.3747 21.681 28.0851 18.0904 27.8506C18.0904 27.8506 15.4147 31.0786 14.5792 31.9177C14.4488 32.0489 14.2956 32.1021 14.1928 32.0757C14.0488 32.0406 14.0093 31.8702 14.0111 31.6213C14.0132 31.2656 14.0339 27.2127 14.0339 27.2127C8.80553 25.7611 9.11024 20.3036 9.16951 17.4457C9.22879 14.5879 9.76576 12.2468 11.3604 10.6723C14.2258 8.077 20.1281 8.46469 20.1281 8.46469C25.1127 8.48665 27.5012 9.98736 28.0549 10.4905C29.8941 12.065 30.8307 15.833 30.1457 21.3529L30.1457 21.3543L30.1462 21.3543Z" fill="rgb(255,255,255)" fill-rule="nonzero" />
		<path id="Vector" d="M22.6623 17.5441C22.4858 17.5441 22.3387 17.4054 22.3299 17.2276C22.2737 16.0952 21.7412 15.5416 20.6536 15.4845C20.4696 15.4748 20.3287 15.3181 20.3384 15.1341C20.348 14.9501 20.5039 14.8088 20.6887 14.8189C22.1245 14.8939 22.9222 15.7154 22.996 17.1942C23.0052 17.3782 22.8634 17.5345 22.6799 17.5437C22.6733 17.5441 22.668 17.5441 22.6623 17.5441Z" fill="rgb(255,255,255)" fill-rule="nonzero" />
		<path id="Vector" d="M24.3724 18.1172C24.3697 18.1172 24.3675 18.1172 24.3649 18.1172C24.1809 18.1133 24.0347 17.9609 24.0391 17.777C24.0637 16.638 23.7384 15.7156 23.0446 14.9573C22.3514 14.2008 21.4017 13.7881 20.1411 13.6959C19.9576 13.6823 19.8197 13.5229 19.8329 13.3394C19.8465 13.1558 20.0068 13.018 20.1894 13.0311C21.6076 13.1348 22.7333 13.6318 23.536 14.5073C24.3403 15.3858 24.7337 16.491 24.7052 17.7915C24.7017 17.9728 24.5533 18.1172 24.3724 18.1172Z" fill="rgb(255,255,255)" fill-rule="nonzero" />
		<path id="Vector" d="M26.123 18.8018C25.9399 18.8018 25.7911 18.6542 25.7897 18.4712C25.7744 16.4603 25.1711 14.8603 23.9962 13.7152C22.819 12.568 21.3319 11.9801 19.5757 11.9678C19.3917 11.9664 19.2433 11.8163 19.2446 11.6323C19.246 11.4492 19.3948 11.3013 19.5779 11.3013C19.5788 11.3013 19.5801 11.3013 19.5801 11.3013C21.5146 11.3149 23.1567 11.9664 24.4611 13.238C25.7678 14.5121 26.4391 16.271 26.4558 18.4663C26.4571 18.6503 26.3092 18.8009 26.1252 18.8022C26.1252 18.8022 26.1239 18.8018 26.123 18.8018Z" fill="rgb(255,255,255)" fill-rule="nonzero" />
		<path id="Vector" d="M20.7368 21.6741C20.7368 21.6741 21.2053 21.7136 21.4573 21.4028L21.9491 20.7841C22.1862 20.4772 22.7587 20.2818 23.3194 20.594C23.7396 20.8337 24.1475 21.0941 24.5413 21.3742C24.9132 21.6478 25.675 22.2835 25.6776 22.2835C26.0407 22.59 26.1241 23.0396 25.8774 23.5142C25.8774 23.5168 25.8752 23.5217 25.8752 23.5243C25.603 23.9959 25.2574 24.4213 24.8517 24.7844C24.8469 24.7866 24.8469 24.7893 24.8425 24.7914C24.4899 25.0861 24.1435 25.2538 23.8033 25.2937C23.7532 25.3025 23.7023 25.3056 23.6513 25.3034C23.5012 25.3047 23.3519 25.2819 23.2092 25.2353L23.1982 25.2191C22.674 25.0711 21.7989 24.7014 20.3412 23.8971C19.4978 23.4374 18.6948 22.907 17.9409 22.3116C17.5629 22.0135 17.2024 21.6939 16.8612 21.354L16.8248 21.3176L16.7883 21.2811L16.7519 21.2447C16.7396 21.2328 16.7278 21.2206 16.7155 21.2083C16.3761 20.8671 16.0564 20.5066 15.7579 20.1286C15.1625 19.3747 14.6321 18.5717 14.1724 17.7287C13.3685 16.2706 12.9984 15.3964 12.8504 14.8713L12.8342 14.8603C12.7876 14.7176 12.7648 14.5683 12.7665 14.4182C12.7639 14.3672 12.767 14.3163 12.7758 14.2662C12.8183 13.9264 12.9861 13.58 13.2789 13.2261C13.2811 13.2217 13.2838 13.2217 13.2859 13.2169C13.6491 12.8112 14.0745 12.4656 14.5461 12.1939C14.5483 12.1939 14.5531 12.1917 14.5562 12.1917C15.0303 11.9445 15.4804 12.0283 15.7864 12.3892C15.7886 12.3914 16.4235 13.1532 16.6957 13.5255C16.9763 13.9198 17.2366 14.3281 17.4759 14.7488C17.7881 15.309 17.5927 15.8824 17.2858 16.1191L16.6672 16.6108C16.355 16.8629 16.3958 17.3313 16.3958 17.3313C16.3958 17.3313 17.313 20.8004 20.7368 21.6741Z" fill="rgb(255,255,255)" fill-rule="nonzero" />
	</g>
</svg>
